<svg xmlns="http://www.w3.org/2000/svg" viewBox="0 0 776.3 228.5" enable-background="new 0 0 776.3 228.5"><style type="text/css">.st0{fill:#741a3c;}</style><path class="st0" d="M72.4 95c-4.6 10.9-17 20.3-32.6 20.3-21 0-37-16.2-37-36.8 0-20.3 15.6-36.8 36.9-36.8 17.6 0 28.6 11.7 32.7 20.7h-8.5c-2.4-4.2-10.5-13.7-24.2-13.7-16.6 0-29.1 13.1-29.1 29.7 0 16.8 12.6 29.8 29.1 29.8 14.9 0 22.5-10.7 24.2-13.3h8.5zM79.5 78.8c0-21.9 17-36.9 37-36.9 20.8 0 37 15.9 37 36.8 0 20.8-16.1 36.8-37 36.8-21-.1-37-16.3-37-36.7zm8-.2c0 16.7 12.6 29.8 29.2 29.8 16.8 0 29.1-13.5 29.1-29.8s-12.3-29.8-29.2-29.8c-16.7.1-29.1 13.3-29.1 29.8zM163.9 43.1h18.5c11.1 0 16.3 1.3 20 3.6 5.8 3.5 9.7 11 9.7 19.1.1 4.8-1.2 9.9-4.2 13.9-4.2 5.8-9.3 7.1-15.8 7.8l17.7 26.6h-8.8l-20.1-31h2.3c5 0 11.9-.1 15.7-3.6 3.7-3.6 5.4-8 5.4-13.1 0-5.3-2.6-10.8-7-13.7-3.6-2.3-8-2.6-14.4-2.6h-11.1v64h-8v-71zM231.9 50.1h-17.5v-7h43v7h-17.6v64h-8v-64zM257.1 78.8c0-21.9 17-36.9 37-36.9 20.8 0 37 15.9 37 36.8 0 20.8-16.1 36.8-37 36.8-21-.1-37-16.3-37-36.7zm7.9-.2c0 16.7 12.6 29.8 29.2 29.8 16.8 0 29.1-13.5 29.1-29.8s-12.3-29.7-29.2-29.7c-16.7 0-29.1 13.2-29.1 29.7zM391.8 102.4l-.1-59.3h7.7v71h-7.7l-42.1-59.8.2 59.8h-7.7v-71h8.1l41.6 59.3zM415.8 114.1h-8.5l29.7-71h7.7l29.4 71h-8.6l-8.3-20h-33.2l-8.2 20zm24.7-62.1l-14.1 35.6h28.3l-14.2-35.6zM0 137.7h11.3l9.4 39.8 9.6-39.8h8.5l9.7 39.9 9.3-39.9h11.2l-14.9 55h-10l-9.7-39-9.6 39h-10.2l-14.6-55zM75.3 137.7h11.1v55h-11.1v-55zM131.9 175.8l-.2-38.1h10.6v55h-9.8l-25.3-38.1.2 38.1h-10.7v-55h9.9l25.3 38.1zM152.8 137.7h30.8v9.7h-19.8v12.5h19.4v9.7h-19.4v13.4h19.8v9.7h-30.8v-55zM201.2 143.1h-13.5v-5.4h33.3v5.4h-13.6v49.6h-6.2v-49.6zM220.7 165.4c0-16.9 13.2-28.6 28.7-28.6 16.1 0 28.7 12.3 28.7 28.5s-12.5 28.5-28.7 28.5c-16.3-.1-28.7-12.7-28.7-28.4zm6.2-.2c0 12.9 9.7 23 22.6 23 13 0 22.5-10.5 22.5-23 0-12.6-9.5-23-22.6-23-12.9 0-22.5 10.2-22.5 23zM292.6 137.7v34.9c0 4.2 0 7.4 2.6 11.1 1.9 2.8 5.6 4.6 9.6 4.6 3.9 0 7.6-1.8 9.4-4.5 2.6-3.6 2.6-6.8 2.6-11.2v-34.9h6.1v34.9c.1 6.4-.7 12.7-6.2 16.9-3 2.6-7.1 4.2-11.9 4.2-3.9 0-8.7-1.1-12.1-4.2-5.8-4.7-6.2-10.9-6.2-16.9v-34.9h6.1zM333.3 137.7h14.3c8.6 0 12.6 1 15.5 2.8 4.5 2.7 7.5 8.5 7.5 14.8.1 3.7-1 7.7-3.3 10.8-3.3 4.5-7.2 5.5-12.3 6l13.7 20.6h-6.7l-15.5-24h1.8c3.9 0 9.2-.1 12.2-2.8 2.9-2.8 4.2-6.2 4.2-10.1 0-4.1-2-8.4-5.4-10.6-2.8-1.8-6.2-2-11.2-2h-8.6v49.6h-6.2v-55.1zM381 177.4c.9 9.1 7.6 11.1 11 11.1 5.7 0 11-4.4 11-10.5 0-7.7-6.6-9.4-13-11.5-4.5-1.3-14-4.2-14-14.6-.1-9.7 8-15.2 16.4-15.2 6.8 0 14.7 3.8 15.6 14.2h-6.1c-.7-3.6-2.5-9-9.7-9-5.5 0-10 3.7-10 9.4-.1 6.7 5.4 8.3 13.7 11.2 5.2 2 13.4 4.9 13.4 15 0 9-6.8 16.1-17 16.1-9.2 0-16.9-5.8-17.2-16.3h5.9zM654.6 174.9c1.3 2.5 2.3 5.2 2.9 8 .5-.2 1.1-.4 1.6-.7 5.2-2.5 8.3-7.5 8.6-13.3-2.1 2.6-5 4.5-8.4 5.4-1.5.5-3.1.7-4.7.6zM606.5 154.2c.4-2.3 1.3-4.5 2.6-6.7.6-1 1.3-1.9 2-2.8-3.5-.6-6.6-2.2-9-4.8-1.9 5.7-1.1 11.5 1.8 16 .8-.6 1.7-1.2 2.6-1.7zM695.9 126.1c.4-.5.7-.8.8-1.1-.3-.1-.7-.1-1.1-.2-1.3-.2-2.8-.4-3.3-1.8l-.1-.3.2-.3c.4-.5.9-.9 1.4-1.3.8-.7 1.4-1.2 1.5-1.7 0 0-.1 0-.1-.1-.5-.2-1.3-.5-1.3-1.4v-.3c-.7 0-1.3 0-2-.1-1.4 3.6-3.9 6.5-7.1 8.4 2.6 2 4.8 4.7 6.3 7.8 2-1.3 3.7-2.9 4.9-4.9-.4-.2-.7-.5-.9-1l-.1-.3.1-.3c.1-.3.5-.7.8-1.1zM623 183c.2-2.2.7-4.4 1.5-6.5-3.8.7-7.7 0-11.1-2-5.2-3.2-8.1-9-8-15.3v-1.2c0-.4 0-.8.1-1.1l-.6.5-.4.3c-.1.1-.2.2-.4.3l-.1.1c-7.4 6.3-8.7 16.2-2.9 23 5.5 6.3 14.6 7.1 21.9 1.9zM615.3 62.9h-.4c-4.8 0-9.1 1.6-12.4 4.4-3.2 2.8-5 6.6-5 10.6-.1 8.5 6.9 14.8 16.7 15 1.6 0 3.2-.2 4.8-.4.8-1.8 2-3.6 3.4-5.2 3.3-3.8 7.7-6.3 12.3-7.1.1-.5.1-1 .2-1.6.1-3.1-1.4-6.4-4-9.1-1.8-1.9-4.1-3.4-6.6-4.5l-.7-.3-1.2-.4c-2.3-.9-4.7-1.3-7.1-1.4zM634.5 58.1c-3.6.9-6.8 2.8-9.2 5.3 7.9 3.2 13.2 9.8 13.2 16.4 1.4 0 2.8.2 4.1.6 0 .1-.1.2-.1.2l-.1.3-.6 1.2c-1.2-.3-2.4-.5-3.6-.5-.5 0-1 .1-1.6.1h-.7c-.2 0-.4.1-.7.1l-1 .2c-3.9.9-7.6 3.1-10.4 6.4-1 1.1-1.8 2.3-2.5 3.5l-.6 1.1c-.2.3-.3.7-.4 1-.9 2.3-1.4 4.8-1.2 7.2.3 4.1 2.1 7.8 5.2 10.5s7 4 11.1 3.8c4.5-.3 8.8-2.5 12.1-6.3 3.2-3.7 5-8.2 5.1-12.8 0-4.5-1.7-8.6-4.8-11.3-.9-.8-1.8-1.3-2.8-1.8.2-.2.3-.5.5-.8l.5-.9c1.2.5 2.3 1.1 3.3 1.8 0 .2-.1.4-.2.5l-.2.4-.3.6 1 .9c.4.3.7.7 1 1l.8.9.6-1c.2-.4.5-.8.7-1.3.4-1.2.6-2.3.5-3.5 2.4-2.1 4.4-4.5 5.5-7.2-.9-.1-1.9-.4-2.4-1.3l-.1-.3.1-.3.1-.3c.1-.3.3-.6.5-.9.1-.1.2-.3.2-.4.1-.2.2-.4.3-.5-1.2.1-2.6.2-4 .6-.6.2-1.2.4-2 .7l-.4.2c-.1 0-.1 0-.2.1l-.4-.2-.2.6-.7.5-.9 1-1.2 1.6c-.1.2-.2.4-.3.5l-1.5 2.4-.5.9.2-.5c.5-1.1 1.1-2.2 1.6-3.2l1-1.8c.7-1 1.3-1.7 2-2.1.9-.6 2.1-1.2 3.4-1.5.9-.3 1.9-.4 3-.6l1.4-.1.1-.4-.6.2c-.9.3-2 .7-2.8-.2l-.1-.1-.1-.2.1-.3c0-.2.1-.3.2-.5 0-.1.1-.2.1-.2v-.1h-1c-1.3.1-3 .2-3.7-1.2l-.2-.3.1-.3c.2-.4.4-.8.7-1.1.3-.5.6-.8.6-1.1-.2-.1-.5-.1-.8-.1-1-.1-2.3-.3-2.7-1.5l-.1-.3.2-.3c.2-.3.4-.6.7-.8.2-.2.4-.4.5-.6l-.9-.3c-1.1-.3-2.5-.7-2.7-2.1l-.1-.3.2-.2c-3.7-.4-7.5-.3-10.9.6zm16.2 26.4l.3-1c.3-1.4 0-2.8-.5-4.2l.2.3.3.9c.3.9.4 1.9.2 2.8l-.3 1.4c-.1 0-.1-.1-.2-.2zM667.3 125.9l-.9-.5c-.4-.2-.7-.5-1.1-.8l-1.5-1.2c-2.8-2.5-5-5.9-6.3-9.8-1.4-4.4-1.7-9.5-.8-14.3h-.1c-.3 5.1-2.4 10-5.9 14.1-3.6 4.1-8.2 6.7-13.1 7.3.1 8.8 5.8 16 13.6 17 7.5 1 14.1-3.6 16.6-11.6-.3 0-.4-.1-.5-.2zM679.8 123c4.7-1.5 8-5.3 9.3-10.1-.2 0-.4-.1-.6-.2l-.3-.1-.1-.4c0-.2-.1-.5-.1-.8 0-.2 0-.5-.1-.6-.3 0-.7 0-1 .1-1.1.1-2.5.3-3.2-.9l-.2-.3.2-.3c.1-.3.3-.5.4-.7l.3-.4c-.3-.3-.7-.5-1.1-.7-1.2-.7-2.5-1.5-2.5-3v-.3l.2-.2c.5-.5 1.1-.9 1.7-1.3 1-.6 1.6-1.1 1.8-1.6-.3-.1-.5-.1-.8-.1-1.1-.2-2.4-.4-2.7-1.6l-.1-.3.2-.3.6-.6c.1 0 .1-.1.2-.2l-1.2-.6c-1.4-.6-3.1-1.3-3.1-3v-.3l.3-.2 1.2-.8c.6-.3 1.1-.6 1.3-.9-.2-.2-.5-.4-.8-.6-.9-.7-2.1-1.5-1.9-2.8l.1-.3.3-.2.7-.3c-.9-.6-1.8-1.1-2.7-1.5-.2-1.2-.5-2.3-.7-3.3-.3.1-.6.2-.9.2-.3.1-.6.1-.9.1.2.7.4 1.4.5 2.2.1.7.3 1.4.4 2 .2 1.4.2 2.8 0 4.5-.1 1-.2 2.1-.4 3.3l-.3-.2v-.4c.1-1.3.2-2.5.2-3.7v-1.7l-.1-1.6c-.1-.9-.3-1.7-.6-2.6v-.1c-.2-.6-.3-1.2-.5-1.7l-.1-.5-.3-.3-.2-.2.1-.3c0-.1.1-.2.1-.4-.3-.8-.5-1.6-.7-2.4l-.2-.6h.1l-.6-.9c-.2-.7-.4-1.3-.5-2-.1-.8-.2-1.5-.2-2.3v-.6l.1-1c-.3.4-.6.8-1 1.1l-.6.4v-.1l-.4-.5-.2-.3-.3.3-.1.3c-.4 1.4-.9 3-2.4 3.2-2.2 3.1-4 6-5.7 8.8l-1.8 3.2-.9 1.7c-.1.1-.2.3-.3.6l-.5.8h.1c-.2.4-.4.7-.5 1.1-.3-1-.6-1.9-1-2.8 1.3-2.5 2.5-4.7 3.9-6.9 1.3-2.2 2.8-4.5 4.6-7.1-.5.3-1 .6-1.5.6-.3 0-.6 0-1-.2-1.4 2-2.6 3.9-3.7 5.7-1.4 2.3-2.7 4.7-4.1 7.4l-.2.4.2.4c.8 1.6 1.3 3.4 1.6 5.3l.4 3 1.3-2.7 2.1-4.2-.3-.2.3.1.2-.3-.8-.3.9.1.9-1.7 1.8-3.2c2-3.5 4.4-7 7.2-11l.1.9.4 1.9c-.4.2-.7.4-1 .6-1 .7-2.4 1.9-3 3.9-.1.3-.2.6-.3 1-.1.5-.1 1.1-.1 1.7 0 .5.2 1.1.4 1.7-1.7 1.2-3.2 2.9-4.4 5.2-2.8 5.4-3.3 12.8-1.3 18.9 3.2 9.6 12.1 14.8 20.4 12.1zm-13.1-37.7c0-.4 0-.8.1-1.2.1-.3.1-.5.2-.7.3-.8.7-1.5 1.4-2.2-.9 1.1-1.4 2.2-1.4 3.2 0 .6 0 1.1.2 1.7l.2.7h-.2l-.2-.6c-.2-.3-.3-.6-.3-.9zm3.9.1c-.6 0-1.2.1-1.8.2-.1-.3-.1-.7-.1-1 0-.5.3-1.4 1.3-2.6l.1-.1c.1.3.2.6.3 1l.5 1.7.3 1c-.1-.2-.3-.2-.6-.2zM618.1 188.5c-5.7 0-12.2 3.5-16 9.2-5 7.6-3.8 17 2.8 21.4 2.9 1.9 6.3 2.6 9.7 2 4-.8 7.7-3.4 10.3-7.5 2.3-3.5 3.7-7.6 3.9-11.7-3.1-3.2-5.2-7.5-5.9-12.3-1.3-.8-3-1.1-4.8-1.1zM606.8 111.6c3-2 6.6-3.4 10.4-4-1-3.4-1-7.1.1-10.8-.8.1-1.7.1-2.5.1-3-.1-5.8-.6-8.4-1.6-.6.2-1.2.4-1.7.6-4.6 1.9-8.2 5.2-10.2 9.3-1.9 4-2.1 8.5-.5 12.4 1 2.4 2.5 4.4 4.5 5.9.9-4.5 3.8-8.8 8.3-11.9zM661.7 139.5c-3.2 1.8-6.9 2.5-10.6 2-3.2-.4-6.2-1.7-8.7-3.9-1.1 1.2-2 2.7-2.8 4.4 2.8 4.8 3.1 12.3.7 19.2 3.7 6.8 10.8 10.3 17.5 8.4 3.8-1.1 6.9-3.6 8.7-7.1 1.9-3.7 2.2-8.2.8-13-1-3.6-3-7.1-5.6-10zM600 124.7c-.1.3-.1.6-.1 1 0 .3-.1.6-.1 1-.1 2.9.6 5.8 2.3 8.3 2 3 5 4.9 8.6 5.6 4.4.9 9.2-.3 13.4-3.2 5.8-3.9 10.1-10.7 10.7-16.6-2.5 0-4.8-.5-7.1-1.5-.3-.1-.6-.2-.9-.4l-1.2-.6-.8-.5-.7-.5c-.5-.4-1-.7-1.4-1.1l-1.8-1.8c-.2-.2-.3-.4-.4-.6-.4-.4-.7-.9-1-1.4-.2-.3-.4-.6-.5-.8l-.6-1.1c-.2-.4-.4-.8-.5-1.2 0-.1 0-.1-.1-.1-3.6.6-7.1 1.9-10 3.8-4.3 3.1-7 7.3-7.8 11.7zM676.1 84.6zM693.2 110.4c0 .9-.1 1.8-.2 2.7 2.9 0 5.5-.7 7.9-2.3 2.1-1.4 3.7-3.2 4.7-5.4-.1.2-.2.4-.4.5-.4.3-.9.5-1.4.5-.6 0-1.2-.3-1.6-.7-.1-.1-.3-.3-.4-.5-.3.4-.6.7-1 1.1-2.1 2.4-4.2 4.6-6.4 5.1l-.7.1-.1-.7v-.9c-.2.2-.3.4-.4.5zM706.7 101.2v-.2c-.7.4-1.3.8-2 1.3.2.2.4.4.5.7.4.4.6 1 .5 1.6 0 .2-.1.3-.1.4.6-1.2 1-2.5 1.1-3.8zM727.2 135.3c-.8-2.2-2-4.4-3.5-6.5-.1.1-.2.3-.2.4 0 .2-.1.4-.1.7 1.2 1.8 2.3 3.7 3 5.7.8 2.3 1.3 4.9 1.3 7.6 0 1.2 0 2.4-.1 3.6-.1 1.9-.5 3.7-.9 5.5-.3 1.3-.7 2.5-1.1 3.8l-1 2.5c0 .2-.1.5-.4 1-2.5 5-5 10-7.7 14.9-2.5 4.4-5.2 8.8-8.6 12.7-1.3 1.5-2.6 2.9-4.1 4.3-1.2 1.1-2.4 2.1-3.7 3-4 2.9-8.1 4.7-12.4 5.6-1.7.4-3.5.6-5.3.6h-.6c-.6 0-1.2 0-1.8-.1-3.7-.4-7-1.7-9.7-4.1l-.1-.1h-.2c-.3 0-.7.4-1 .6l-3.5 3.3c-.7.6-1.5 1-2.2 1.2-.2 0-.4.1-.7.1h-.4c-1.4-.2-2.5-1.3-3.5-2.3-.7-.8-1.5-1.7-2.5-2h-.1l-.4.1c.1 0-.3.2-.4.3-.4.3-.7.7-.9 1.1-.7 1.5-.2 3.3.1 4.8l1 3.5c.9 2.8 2 5.9 1.4 8.9-.2.9-.5 1.5-.9 2.2-1.1 1.9-3.1 3.4-5.2 4.6-2.4 1.3-4.8 2.1-7.2 3.2-1.2.5-2.3 1.1-3.4 1.8-.1.1-.2.1-.3.1-.2 0-.4-.1-.5-.3-.2-.3-.1-.7.2-.8 1.2-.6 2.3-1.3 3.4-1.8 2.4-1 4.7-1.9 7-3.2 2.2-1.2 4-2.7 5.1-4.7 0 0 .2-.4.2-.5l.3-.9c.2-1.1.1-2.1 0-3.2-.5-2.9-1.7-5.8-2.5-8.6-.1.3-.3.6-.5.8-.3.5-.6.9-1 1.2-.8.8-1.8 1.5-2.8 1.9-.5.2-1.1.3-1.6.4-.3 0-.6 0-.8.1h-.2c-1.5 0-3-.3-4.4-1.1-.3-.2-.6-.4-.8-.6l-.5-.4c-.9-.9-1.5-2-1.7-3.3v-1c0-.8.2-1.7.5-2.5.2-.5.5-1 .7-1.4.7-1 1.5-1.7 2.5-2.2l.3-.3c.2-.3.4-.6.5-.9.3-.8.5-1.6.5-2.4v-.8c-.1-.7-.3-1.4-.9-1.9 0 0-.1-.1-.2-.1s-.2-.1-.4-.1h-.2c-.2 0-.5 0-.7.1-.3.1-.6.3-.8.6l-.1.1v.4c.2.4.6.6 1 .7.1 0 .2.1.2.2s-.1.2-.2.2c-.4-.1-.8-.1-1.1-.4-.1-.1-.2-.2-.2-.3-.3-.5-.2-1 .1-1.5.2-.2.5-.4.7-.5.4-.2.8-.3 1.1-.3.4 0 .8.1 1.2.4l.4.3c.3.4.5.8.7 1.3.3.9.2 1.9.1 2.8-.1.6-.4 1.3-.7 1.9.1 0 .2 0 .2-.1h.6c.5 0 .9.1 1.4.2.4.2.9.4 1.3.7.8.6 1.4 1.4 1.6 2.5v.2l.1.5c0 .8-.2 1.8-.8 2.5-.4.5-1 .9-1.7 1.1-.2 0-.4.1-.5.1-.2 0-.5 0-.7-.1-.7-.2-1.3-.6-1.7-1.2l-.1-.2-.1-.2c-.2-.3-.3-.7-.2-1.1 0-.1 0-.2.1-.3.3-.5.9-.7 1.4-.7h.2c.1 0 .2 0 .4.1.1 0 .2.2.2.3 0 .1-.1.2-.3.2h-.1l-.4-.1c-.2 0-.4 0-.6.1-.1 0-.2.1-.3.2l-.1.2v.3l.1.4c.1.1.2.2.2.3.1.2.2.3.4.5.4.3.9.5 1.3.5h.7000000000000001l.4-.2c.2-.1.3-.1.4-.2.2-.2.4-.3.5-.6.4-.6.5-1.2.5-1.8 0-.9-.4-1.7-1-2.3l-.1-.1-.3-.2-.5-.3c-.5-.3-1-.4-1.6-.4h-.4c-1.1.2-1.9.7-2.7 1.5-.4.4-.8 1-1.1 1.5-.2.3-.3.7-.4 1v.2l-.1.6-.1.9c0 .3 0 .7.1 1 .2 1.1.8 2 1.6 2.7l1 .7c.5.3 1 .4 1.5.6.7.2 1.3.3 2 .3h.7999999999999999c.2 0 .3 0 .5-.1 1.4-.2 2.6-1 3.6-1.9.5-.5.9-1.2 1.2-1.8.3-.6.4-1.2.5-1.8-.1-.9-.1-1.8.1-2.8.1-.5.4-1.1.8-1.5.3-.4.7-.7 1.2-1 .4-.3.9-.4 1.3-.4 1.1 0 2.2.9 3 1.7l1.6 1.6c.6.5 1.1.9 1.8.9 0 0 .5-.1.7-.2.4-.2.9-.5 1.3-.9 1.1-1 1.9-2.1 3-3 .4-.4.9-.8 1.4-1 .3-.1.7-.2 1-.2h.1c1 .1 1.6.8 2.3 1.3 1.8 1.4 4 2.2 6.4 2.6 1.1.2 2.1.2 3.1.2 2.7 0 5.3-.5 7.9-1.4l3.5-1.5 3.8-2.2c2.2-1.4 4.1-3.1 5.8-4.9 1.9-1.9 3.5-3.9 5-6 2.3-3.2 4.3-6.5 6.1-9.9l-2.1 1.7c-1.5 1.1-3 2-4.6 2.7-1.3.6-2.6 1.1-4.1 1.4-1.1.2-2.3.3-3.4.3-.5 0-1 0-1.5-.1-3.3-.3-6.4-1.2-9-3-1.2-.8-2.2-1.8-3-2.9l-.2-.4-1.6.4c-.8.1-1.5.2-2.3.2-1 0-2-.1-2.9-.4-.6-.2-1.2-.5-1.8-.9-.7-.4-1.4-1.2-2-1.8-.8-1-1.4-2.1-1.9-3.3-.2-.5-.4-1-.6-1.6-.2-.8-.4-1.7-.5-2.6-.2-1.2-.2-2.4-.1-3.5.1-.5.1-1 .3-1.5.2-.9.5-1.9 1-2.7l.3-.4-.1-1.3c0-1.2.1-2.3.5-3.3.2-.5.5-1 .8-1.5.4-.5.8-.9 1.2-1.3.4-.4.9-.7 1.3-1 .4-.3.9-.7 1.2-1.1.2-.3.4-.5.5-.8l.1-.3c0-.1.1-.3.1-.3.1-.4 0-.9-.1-1.3-.3-.9-1-1.6-1.8-2-.4-.2-.9-.3-1.4-.3-.4 0-.7 0-1.1.1h-.1c-.3 0-.5-.2-.5-.4-.1-.3.1-.6.4-.7.5-.1.9-.2 1.4-.2.6 0 1.2.1 1.8.3 1.6.7 2.8 2.4 2.7 4.3 0 .5-.1 1-.3 1.5l-.3.6c-.7 1.1-1.9 1.8-2.9 2.6l-.6.6c-1 1-1.3 2.3-1.4 3.6v.7l.1-.1c.3-.2.6-.5.8-.7.6-.5 1.3-.9 2-1.2.7-.3 1.6-.6 2.5-.6h.3c.7.1 1.4.2 2 .6.8.5 1.4 1.3 1.7 2.1l.1.2c.1.4.2.9.1 1.4-.1 1.4-.9 2.5-2.1 3.2-.7.4-1.6.6-2.5.6h-.2c-1.3-.1-2.6-.4-3.7-1.1-.5-.3-1-.6-1.4-1.1l-.4 1c0 .1 0 .2-.1.3-.5 1.9-.5 4 0 6 .2.8.4 1.5.7 2.3.4 1.1 1 2.2 1.8 3.1.2.3.5.6.8.8l.7.6.9.5.9.3c.4.1.8.2 1.2.2h.8c.9 0 1.8-.1 2.6-.3l.3-.1-.1-.4c-.4-1.4-.6-3-.6-4.5 0-1 .1-1.9.2-2.8.1-.8.2-1.5.5-2.2.6-2 1.5-4 3.3-5.3.3-.2.7-.4 1.1-.6.6-.2 1.2-.3 1.9-.3 1.6 0 3.2.7 4.1 2.1.7 1.2 1 3 .8 4.5-.2 2.1-.9 4.2-2.1 5.9-1.2 1.7-2.9 2.9-4.6 3.9l-1.3.6c.8 1.1 2 2 3.1 2.7 2.4 1.4 5.3 2.2 8.3 2.2h.2c1.3 0 2.6-.1 3.8-.4.7-.2 1.4-.4 2-.6 0 0 .1 0 .1-.1.2-.1.4-.2.5-.2l1-.5c1.4-.7 2.8-1.6 4.1-2.6 1.3-1 2.6-2.1 3.8-3.4 2.5-2.5 4.5-5.4 6.1-8.3 2.4-4.6 4.1-9.5 4.3-15 .1-1.3 0-2.6-.1-3.9-.1-.6-.2-1.3-.2-1.9l-.1-.7v-.3c-.1-.3-.2-.6-.2-.9 0 .4-.1.7-.2 1.1-.1.3-.2.5-.3.7v.2c.1.7.2 1.3.2 1.9.1 1.3.1 2.6.1 3.8-.2 4.9-1.6 9.7-4.2 14.6-1.5 2.9-3.5 5.6-5.9 8.1-1.1 1.2-2.4 2.2-3.7 3.3-1.3 1-2.6 1.8-4 2.5l-.5.2-.5.2-.3.1-.2.1h-.1c-.6.2-1.2.4-1.9.6-1 .3-2.3.4-3.6.4h-.2c-2.8 0-5.5-.7-7.8-2.1-.8-.5-1.6-1-2.1-1.6l.3-.1c2.2-1.2 3.8-2.5 5-4.2 1.2-1.7 2-3.8 2.3-6.3.2-1.9-.1-3.8-.9-5.1-.9-1.6-2.8-2.6-4.8-2.6-.8 0-1.5.1-2.2.4-.4.2-.9.4-1.3.7-1.7 1.2-2.9 3.1-3.6 5.8-.2.7-.3 1.4-.5 2.4-.1 1-.2 1.9-.2 2.9 0 1.5.2 3 .5 4.2-.6.1-1.2.2-1.8.2h-.8c-.4 0-.8-.1-1.1-.2l-.8-.3-.7-.4-.6-.5c-.3-.2-.5-.5-.7-.7-.7-.7-1.2-1.7-1.7-2.9-.3-.7-.5-1.4-.7-2.2-.4-1.9-.4-3.8 0-5.5 1.3.9 2.9 1.5 4.7 1.5h.3c1.1 0 2.2-.3 3-.7 1.5-.9 2.4-2.2 2.5-3.9.1-.5 0-1.2-.1-1.7-.1-.3-.2-.5-.3-.7 2.8-3.3 4.1-8 3.5-13.1-.6-4.9-3-9.3-6.5-12.2l-1 .4c-3.5 1.1-7.1 1.1-10.6 0-1.3 4.5-3.7 8.3-7 10.8 3.3 3.4 5.8 7.7 7.1 12.3.6 2.3.9 4.6.9 6.8h.1l-.3 1.5c-.1 1-.2 2.4.1 3.8.2 1 .4 1.9.6 2.7.1.5.3 1 .6 1.7.6 1.4 1.2 2.5 2 3.5.7.8 1.5 1.6 2.2 2 .7.4 1.3.7 2 1 .9.3 2 .5 3.2.5.8 0 1.6-.1 2.4-.2l1-.2c.8 1.2 1.9 2.2 3.1 3 2.7 1.8 5.8 2.8 9.5 3.1l1.6.1c1.2 0 2.4-.1 3.6-.3 1.4-.3 2.9-.7 4.3-1.5 1.2-.6 2.4-1.2 3.4-1.9-1.3 2.2-2.6 4.3-4 6.1-1.6 2.3-3.2 4.2-4.9 5.8-1.5 1.5-3.4 3.3-5.6 4.7l-4 2.4-3.4 1.4c-2.5.9-5.1 1.3-7.5 1.3-1 0-2-.1-3-.2-2.3-.4-4.4-1.2-6-2.4-.2-.1-.3-.2-.4-.4-.6-.5-1.3-1.1-2.4-1.2h-.1c-.5 0-.9.1-1.3.3-.6.3-1.2.7-1.6 1.1-.6.6-1.2 1.1-1.6 1.6-.5.5-.9 1-1.4 1.4-.4.3-.8.6-1 .7l-.4.1c-.4 0-.8-.4-1.2-.7-.4-.3-.7-.7-1.1-1.1l-.5-.5c-.9-.9-2.2-2-3.7-2-.6 0-1.2.2-1.8.6-.5.4-1 .7-1.3 1.2-.5.5-.8 1.2-1 1.9-.2.9-.3 1.9-.2 3-.1.5-.2 1-.4 1.4-.2.5-.6 1.1-1.1 1.6-.8.9-1.9 1.5-3.1 1.7h-1.2000000000000002c-.6 0-1.2-.1-1.8-.2-.5-.1-1-.3-1.4-.5-.3-.1-.6-.3-.9-.6-.7-.6-1.2-1.3-1.3-2.2 0-.3-.1-.5 0-.8.5 0 .9 0 1.4-.1l.4-.1c.1.1.2.3.3.5.5.7 1.4 1.3 2.2 1.5.3.1.6.1.9.1.2 0 .5 0 .7-.1.8-.2 1.6-.7 2.2-1.4.9-1.1 1-2.3 1-3.1 0-.3 0-.5-.1-.9l-.1-.3c.7-.7 1.3-1.5 1.9-2.3 2.2-3.4 3.1-7.8 2.5-12.4-.4-2.9-1.4-6.1-2.9-8.8-5.1-1.1-9.6-4.5-12.5-9.4l-.1-.1-.1.1-.8 1.5c-2.8 4.5-6.7 7.8-11.2 9.3-1.3 3.7-1.7 7.6-1.2 11.1.6 4.9 2.9 9 6.5 11.8 1.9 1.4 4 2.4 6.1 2.7 0 .4-.1.8 0 1.2.2 1.5.9 2.8 2 3.8l.6.5.9.6c1.4.8 3.1 1.2 4.8 1.2h.2c.3 0 .6 0 .9-.1.6-.1 1.3-.2 1.9-.5 1.2-.5 2.3-1.2 3.2-2.1l.5-.5c.2.5.3 1 .5 1.4.6 1.7 1.1 3.5 1.4 5.2.1.8.3 1.8.1 2.8-.1.3-.1.5-.2.7-.1.2-.1.3-.2.4-.9 1.6-2.5 3.1-4.7 4.3-1.7.9-3.3 1.6-5.1 2.4l-1.8.8c-1.2.5-2.3 1.1-3.5 1.8-.7.4-1 1.4-.6 2.1.3.5.8.8 1.3.8.3 0 .5-.1.8-.2 1.2-.7 2.3-1.2 3.4-1.7.8-.4 1.6-.7 2.4-1 1.6-.7 3.2-1.4 4.9-2.2 2.5-1.3 4.5-3.1 5.5-4.9.4-.6.8-1.4 1-2.5.6-3-.3-5.9-1.2-8.5l-.2-.8-.3-.9c-.3-.8-.5-1.7-.7-2.5-.3-1.2-.7-3-.2-4.2.1-.3.3-.5.6-.7.1 0 .1-.1.1-.1l.2-.1c.5.2 1 .7 1.5 1.2l.4.4c1.1 1.1 2.3 2.3 4 2.6h.5c.3 0 .5 0 .8-.1 1.1-.2 2-.8 2.6-1.3l1.8-1.7c.6-.6 1.1-1.1 1.7-1.6.1-.1.2-.2.4-.3 2.8 2.4 6.1 3.8 10 4.2.6.1 1.2.1 1.9.1h.6c1.8 0 3.7-.2 5.5-.6 4.6-1 8.7-2.9 12.7-5.8 1.3-.9 2.5-2 3.8-3.1 1.4-1.3 2.7-2.7 4.2-4.4 3-3.5 5.8-7.6 8.7-12.8 2.5-4.4 4.8-9 7-13.5l.7-1.4c.2-.5.4-.9.4-1.2l.1-.2.9-2.2c.5-1.4.9-2.7 1.2-3.9.5-2 .8-3.9.9-5.6.1-1.1.1-2.3.1-3.7-.4-2.3-.9-5.1-1.7-7.4zm-80.5 65.7c-.1.1-.1.1-.2.1l-.3.1h-.30000000000000004c-.2 0-.5-.1-.7-.3v-.1c.8-.3 1.5-.6 2.2-1-.1.3-.2.5-.3.7-.2.4-.3.5-.4.5zM692.5 166.2l.7-1.3c.6-1.4 1-2.8 1-4.4 0-.9-.1-1.8-.5-2.5-.1-.2-.3-.5-.6-.7l-.6-.3-1.3-.2c-2 0-3.1 1.9-3.7 3.5-.3.8-.5 1.6-.7 2.4-.3 1.6-.4 3.4-.2 5.2.1.7.2 1.5.5 2.1l.1.1.8-.3c.5-.2.9-.5 1.4-.8.5-.3 1-.7 1.4-1.1l1.7-1.7zm-4.9 1.6c-.2-1.5-.1-3.2.2-4.9.1-.8.4-1.6.6-2.3.5-1.3 1.4-2.9 2.9-2.9l1.1.2.5.2s.1.1.2.3c.3.5.4 1.3.4 2-.1 1.5-.4 2.8-.9 4.1l-.7 1.1-1.6 1.7c-.4.3-.8.6-1.3.9l-1.1.6c-.2-.2-.3-.6-.3-1zM675.9 154.6l-.2.3.4.6c.2.2.4.4.6.5.6.4 1.3.7 2.1.9.4.1.9.2 1.4.2h.2c.8 0 1.4-.2 2-.6l.5-.4.5-1.2.1-.5c0-.2 0-.3-.1-.5-.1-.3-.2-.5-.3-.7-.5-.8-1.4-1.2-2.3-1.2h-.2c-.3 0-.7.1-1 .2-.8.2-1.5.6-2.1 1-.2.1-.4.3-.6.5l-.3.2c-.3.2-.5.4-.7.7zm6.2.8l-.4.3c-.2.1-.6.2-1 .3.5-.2 1-.5 1.4-.8v.2zM634.7 139.5l.5.4c.9.7 1.8 1.5 2.4 2.5l1.1 1.5.5-1.8c.6-2.1 1.3-4.2 2-6.3l.3-.9.1-.5-.3-.4c-.9-1.1-1.7-2.3-2.3-3.7l-1-2.1-1.3 4.2c-.2 0-.3.1-.5.2-2.3.8-4 2.3-4.9 4.5l-.3.9-.3-.1c-1.3 1.4-2.8 2.6-4.3 3.6-4.2 2.8-8.9 4.2-13.5 3.9h-.1l-1.1 1.3c-.4.5-.8 1.1-1.1 1.7-4.7 7.8-3 17.1 3.9 21.3 6.7 4.1 15.4 1.2 20.2-6.7 3.2-5.2 4.4-12 3-17.3-.8-3.1-2.3-5.5-4.6-6.8l-.7-.4c.5.1.9.3 1.4.5l.8.4.4-.7v.1l-.3.7zm-1.2-2.6c.5-.9 1.3-1.6 2.3-2.1-.6.5-1.2 1.1-2 2.3l-.3-.2zm6.1-2c0 .1-.1.2-.1.4l-1.5 4.7c-.4-.4-.8-.8-1.3-1.2l.6-2.2 1-3.4c.5.6.9 1.1 1.3 1.7zM673.2 72.1c0-.1 0-.2.1-.4v-.2c.1-.5.3-1 .5-1.5.3-.9.7-1.7 1.3-2.7l.3-.6 2.7-3.5-.5-.8-.5-.8c-1 1.3-2.1 2.7-3.2 4.1l-.3.7c-.5 1-1 1.9-1.4 3-.2.6-.4 1.2-.5 1.7v.2l-.1.6v.2l.6.1-.6-.1-.1.9c0 1.3.1 2.7.5 4.3l.5-.6c.1-.1.2-.2.2-.3.3-.3.5-.6.5-.8-.2 0-.4-.1-.7-.2-.4-.1-.7-.4-.8-.8l-.1-.5.4-.1c.1 0 .2-.1.2-.1l.9-.5v-.8l.1-.5zM680.3 58.6c-.1-.6-.2-1-.3-1.5l-.6.2c.3.4.5.8.8 1.1 0 .1 0 .1.1.2zM675.5 59.6c-.3.3-.5.6-.7 1l.8-1h-.1zM672.2 79.2c.1.6.3 1.1.5 1.7.3-.7.5-1.3.4-1.7h-.1c-.2 0-.5.1-.8 0zM591.7 70l3.1-3 4.2-3.1c2.6-1.8 5.5-3.2 8.3-4.5 3.1-1.4 6.2-2.5 9.4-3.5 5.8-1.8 11.8-3.2 17.9-4.4 3.1-.6 5.9-1.3 8.4-2-.3-.7-.4-1.3 0-2.1l.2-.3.3-.1c.7-.1 1.6-.1 2.4 0 1.4.1 2.4.1 2.9-.4l-.1-.2-.3-.6c-6 1.1-12 2.2-17.9 3.5-6.6 1.4-13.1 3.2-19.4 5.6-2.4.9-4.7 1.9-7 3-1.8.9-3.5 1.8-5.2 2.9-5.1 3.2-8.9 6.6-11.7 10.5-1.2 1.7-2.2 3.5-2.8 5.4-.2.6-.4 1.1-.5 1.7-.8 3.6-.2 6.9 1.9 9.9 0 0 .1.1.1.2v.2c-.1.3-.7.6-1.1.8l-5.5 2.6c-.9.5-1.8 1.2-2.3 1.9-.2.3-.4.6-.4 1-.2 1.4.8 2.6 1.8 3.7.7.8 1.7 1.8 1.6 2.7 0 .2-.2.3-.4.5 0 0-.3.2-.5.3-.5.3-1.1.5-1.7.6-.4.1-.7.1-1.1.1-1.8 0-3.6-.6-5-1.1-1.4-.5-2.7-1.1-4.1-1.7-3.3-1.4-6.8-3-10.9-3.1-1.2 0-2.1.2-3.2.4-2.8.6-5.5 2.2-7.7 4-2.5 2-4.5 4.1-6.7 6.1-1.1 1-2.3 1.9-3.5 2.9-.3.2-.3.6 0 .8.1.1.3.1.5.1s.4-.1.6-.2c1.2-1 2.4-1.9 3.5-2.9 2.2-2 4.1-4 6.6-5.9 2.3-1.8 4.9-3.3 7.8-3.9 0 0 .5-.1.7-.1.4-.1.8-.1 1.2-.1 1.4 0 2.8.3 4.1.7 3.9 1.1 7.4 3.1 11.2 4.4 1.6.6 3.3.9 5.2.9h.3c.7 0 1.6-.2 2.3-.4.6-.2 1.2-.5 1.7-.9 2-1.3.9-3-.1-4.3l-1.5-1.8c-.4-.6-.8-1.3-.5-1.9 0 0 .3-.5.5-.6.4-.4 1-.7 1.6-1l5-2.2c.6-.3 1.4-.7 1.8-1.2.3-.3.6-.6.7-1 .3-.9-.4-1.6-.9-2.4-1.1-2-1.4-4.2-1.1-6.5.5-3.5 2.5-6.9 5.3-10zM562.6 54.2zM565 57.7c1.3.7 2.6 1 3.9 1 1.3 0 2.5-.4 3.6-1.1.6-.4 1.1-1 1.6-1.6.2-.3.5-.7.7-1.1l.4-1c.6-1.9.1-3.7-.9-5.3-.5-.8-1.1-1.3-1.9-1.8-.5-.4-1.3-.6-1.9-.8-.4-.1-.7-.1-1.1-.1-1 0-1.9.3-2.7.9-.7.5-1.2 1.3-1.5 2.3-.1.3-.1.5-.1.8-.1 1.4.7 3.1 2.1 3.7.4.2.7.2 1.1.2 1.2 0 2.3-.8 2.7-2.1.2-.8 0-1.7-.8-2-.1-.1-.3-.1-.5-.1h-.1l-.7.1c-.2.1-.4.2-.5.3-.2.1-.2.4-.1.6.1.1.2.2.3.2.1 0 .2 0 .2-.1.2-.1.5-.2.7-.2h.2l.3.1.1.3c.1.7-.5 1.5-1 1.9l-.4.2h-.4c-.3 0-.8-.1-1.1-.3-.8-.5-1.4-1.5-1.4-2.5 0-.2 0-.5.1-.7l.2-.7.7-1c.6-.7 1.5-1 2.5-1 .7 0 1.4.2 2.1.5.5.3.9.5 1.3.9l.5.5.2.3c.2.3.4.7.5 1 .6 1.4.6 2.9-.1 4.5-.1.3-.3.6-.5.8-.2.3-.5.6-.7.8-.4.4-.9.7-1.4 1l-.8.3-.3.1h-.2c-.4.1-.7.1-1.1.1-1 0-2.1-.2-3.1-.8-.4-.2-.7-.4-1-.6-.5-.4-1-.7-1.4-1.2-.1-.1-.3-.3-.4-.5l-.2-.3-.1-.1c-1.7-2.7-1.9-5.9-1.3-9 .3-1.5.8-3.1 1.5-4.5l1.3-2.4c.6-.9 1.3-1.7 2-2.5l.2-.2.5-.5c.3-.3.7-.6 1-1 1.4-1.3 2.8-2.5 4.3-3.5 1.5-1.1 3.1-2.1 4.8-3 3.2-1.7 6.7-3.1 10.1-4.1 5.3-1.5 10.7-2.1 16.1-2.1 2.1 0 4.2.1 6.3.3 3 .2 6 .7 9 1.3 2.8.6 5.7 1.3 8.6 2.2 2 .6 4.1 1.3 6.1 2.1 5 1.9 9.6 4.2 14 6.7-.4-.9-.5-1.9.1-2.8-1.8-1-3.6-1.9-5.6-2.8-1.1-.5-2.3-1-3.5-1.5-.1-.2-.3-.3-.6-.4h-.3l-1.1-.5c-1.2-.5-2.4-.9-3.6-1.3l-.9-.7c-1.5-1.4-2.6-3.3-3-5.4-.1-.2-.1-.5-.1-.8v-.2c-.1-1.4 0-2.7.3-4.1.2-.8.5-1.6.9-2.4.3-.6.6-1.1 1-1.6 1-1.3 2.5-2.2 4.2-2.5.5-.1.9-.1 1.4-.1.5 0 1 0 1.5.1.1 0 .2 0 .4.1l.5.1h.4c.1 0 .2.1.4.1l.5.2.7.3c.9.4 1.7 1 2.4 1.7 1.1 1.1 2 2.4 2.3 4.1.2 1 0 2.1-.6 3.1l-.5.8-.3.4-.1.1c-.9 1-2.3 1.6-3.7 1.6-.9 0-1.8-.2-2.6-.8-.3-.2-.6-.5-.9-.8-.2-.2-.3-.4-.4-.6l-.3-.6v-.9c0-.6.3-1.4.7-1.9.3-.4.7-.7 1.1-1 .2-.1.4-.2.6-.2h.4l.3.1c.2.1.3.3.4.5.2.5.3 1 .1 1.5-.1.2.1.4.3.5h.1c.2 0 .4-.1.4-.3l.1-.6c.1-.9-.2-2.1-1.1-2.5-.2-.1-.3-.1-.5-.1h-.3c-.5 0-.9.1-1.3.3l-.6.3c-.7.6-1.4 1.6-1.7 2.6-.1.7-.2 1.3 0 1.9.2 1 .8 1.9 1.7 2.5 1.1.9 2.5 1.2 3.7 1.2h.2l1-.1c1.6-.3 2.8-1.2 3.8-2.5.4-.6.8-1.3 1-2 .4-1 .4-2 .3-3 0-.1-.1-.2-.1-.4 1 .5 2 .9 3 1 .7.1 1.4.2 2 .2.8 0 1.5-.1 2.3-.3.8-.2 1.4-.6 2.1-1.1.2-.2.4-.4.5-.6.7-1.1.6-2.4.1-3.5-.2-.4-.5-.8-.8-1.1-.4-.3-.8-.5-1.3-.5-.3 0-.7.1-1 .3-.1.1-.3.2-.4.4-.5.5-.5 1.1-.6 1.7 0 .2.1.3.3.3.1 0 .3-.1.3-.3.1-.6.4-1.3 1-1.6l.3-.1.3.1.2.1c.5.3.7.7.9 1.2.2.5.2 1 .2 1.5l-.1.6c0 .1-.2.3-.2.3-.7.8-1.7 1.2-2.8 1.4-.4.1-.7.1-1.1.1h-.2c-1.2-.1-2.4-.3-3.6-.8-.5-.2-1-.5-1.4-.8l-.5-.4v-.1c-.9-1.3-2.1-2.6-3.5-3.6-.7-.4-1.4-.9-2.2-1.1-1.3-.5-2.7-.8-4-.8-.4 0-.9 0-1.3.1-2 .3-3.7 1.2-5 2.6l-.6.7c-.3.4-.6.8-.8 1.3-1.3 2.3-1.7 4.7-1.6 7 0 .4 0 .8.1 1.3.1.8.3 1.7.6 2.5.4 1 .9 1.9 1.5 2.8-4-1.3-7.9-2.3-11.8-2.9-3.1-.5-6.1-.8-9.1-1-1.3-.1-2.5-.1-3.8-.1-1.8 0-3.7.1-5.5.2-3.8.2-7.6.9-11.2 1.9-1.4.4-2.7.8-4.1 1.3-6.7 2.4-12.6 6.2-17.4 10.9-.7.7-1.5 1.5-2.1 2.3-1.2 1.5-2.3 3.3-3.1 5.3-1.7 4.3-2.1 8.5-.3 12.4.9 1.7 2.3 3.1 4.1 4zM704.5 105.3c.5-.4.6-1.2.1-1.7-.2-.2-.4-.4-.5-.7-.6.5-1.2 1.1-1.8 1.7.1.2.3.4.4.5.2.3.6.4.9.4.4.1.7 0 .9-.2zM678.1 57.8c-.7.3-1.3.7-1.9 1.1l1.3 1.9c.2.3.4.5.5.8.2.3.4.5.5.8.4.6.7 1.2 1.1 1.7.4-1.3.6-2.7.7-3.9-.2-.3-.4-.5-.5-.8l-1.3-1.8c-.2.1-.3.2-.4.2zM689 58.3c-1.2-.1-2.4-.3-3.6-.5-1.2-.2-2.4-.5-3.6-.9-.2-.1-.4-.2-.7-.2.1.3.3.7.3 1.1l.3.5c.5.8 1 1.6 1.4 2.5 1 1.9 1.9 4 2.8 6l2 4.4.2-.1.3.1c1 .5 2.1 1.3 3.2 2.2 2.3 1.8 3.8 2.9 4.8 1.8 1.1-1.1.1-2.4-2.2-4.9-1.5-1.7-3.1-3.4-3.4-5.3l-.1-.6.5-.2c.2-.1.5-.1.7-.1.1 0 .2 0 .3-.1.1-.7 0-1.4 0-2.2 0-.6-.1-1.2 0-1.8l-.6-.9c-.1-.2-.3-.5-.4-.8-.6.1-1.4.1-2.2 0zM697.9 58.4h-.7999999999999999c.3.2.6.3.8.3v-.3zM726.8 59.2l.6.1c.2 0 .5.1.6.2.1 0 .1 0 .2.1.2-.6.3-1.3.4-2 .1-.8.3-1.7.6-2.5l-2.5.3c-.4 1.5-1.1 3.2-1.7 4.9-1.5 4-3.3 8.6-2.2 10.4.3.5.8.7 1.5.8.4 0 .7 0 1-.1l-.1-.3-.1-.2.1-.2c.3-.6.8-.9 1.3-1.2.2-1.2.1-2.9 0-4.4-.1-2-.3-4 .2-5.4l.1-.5zM655.3 18c-.3.5-.2 1.3 0 2.5.1.7.2 1.4.2 2.1v.3l-.2.2c-.9.7-1.9.2-2.7-.2l-.5-.2c-.3.7.2 1.7.8 3 .4.8.8 1.6.9 2.4l.1.3-.2.3c-.6.7-1.5.4-2.1.2.1.3.3.6.5.9.3.4.6.8.7 1.3l.1.3-.2.3c-.3.5-.8.7-1.3.8-.3 0-.5.1-.8 0-.4 0-.8-.1-1.1-.1-.3-.1-.7-.1-.9-.1-.2.7.3 1.6 1 2.9l.2.3.4.7.3.7.2.4.1.2v.2c-.1.4-.3.6-.6.8.9.8 2.3 1.3 3.7 1.8 2.4.9 5.1 2 4.4 4.5-.5 1.8-2.2 1.9-4 1.7l-.6-.1-.7-.1-.6-.1-2.2-.4h-.2l.1.2c.1.2.3.5.4.8l.1.3-.2.3c-.2.3-.5.6-.8.8-.4.2-.8.4-1.3.4-.5.1-1.1.1-1.6.1h-.7c-.6 0-1.2-.1-1.6 0v.1l1 .3.7.3.5.2c.1 0 .1 0 .2.1 1.3.5 2.7 1 4 1.4 4.1 1.4 8.2 2.7 12.3 3.5 2 .4 4.1.8 6.1 1.1 1.2.2 2.4.3 3.6.3h1.9c.5 0 1 0 1.5.1h2.8000000000000007l.7-.2c-.2-.1-.3-.3-.4-.5l-1.5-1.7c-1.3-1.7-2.5-3.6-3.6-5.4-.2-.3-.3-.6-.4-.9l-.6-.1-1.5-.4-2-.7-1.2-.6-1.3-.6-.1-.1c-4.9-2.4-9.8-5.9-14.1-9.2-1.5-1.1-2.9-2.3-4.3-3.4 1.3.8 2.5 1.8 3.7 2.7 2.9 2.1 5.9 4.2 9 6.2l2.7 1.6 1.1.6c.6.3 1.1.6 1.7.8l1.5.7 2.7 1.2c.5.2 1.1.5 1.7.7.3.1.6.2.9.4-.5-.9-.9-1.7-1.3-2.6-3.1-6.7-5.1-14-7-21.5l-2.1-8.2-.8-2.9-.7-2.3c-.4.4-.5 1.3-.5 2.5 0 .8-.1 1.6-.3 2.3l-.1.3-.2.1c-.6.3-1.2.1-1.5-.1h-.1c-.3.4-.3 1-.3 2 0 .6 0 1.2-.1 1.7l-.1.3-.3.1c-.9.5-1.7-.1-2.3-.6l-.7-.3zM692.4 59.5c0-.3.1-.7.2-1-.3 0-.6 0-1-.1.2.3.4.6.6.8l.2.3zM725.3 34.5l.3-.3-2.5.8c-2.1.7-4.2 1.4-6.3 2.2-4.6 1.7-9.1 3.6-13.8 5.4-3.7 1.4-7.4 2.8-11.3 3.7-1.2.3-2.4.5-3.6.7-.4.1-.8.1-1.2.1-.8 1.4-1.7 2.8-2.5 4.1l-2.1 3.1c-.5.7-.9 1.3-1.4 1.9.1.1.1.2.1.3h.1l1.2.2 3.5.6c2.4.3 4.8.4 7.2.5.2-.3.5-.6 1-.9l.3-.2.3.1c.5.2 1 .6 1.5.9h1.7999999999999998c-.1-1.1-.2-2.4 1-3l.4-.2.3.2.8.7.4.4c.1-.6.1-1.3.1-2 .1-2.1.1-4.4 2.2-5.1l.4-.1.3.2c.4.3.6.7.9 1 .4.5.7.8 1 1 .2-.5.4-1 .6-1.6l.2-.6c-.2-1-.1-1.9.3-2.6 1.2-2.1 4.7-2.5 8.4-3 .6-.1 1.1-.2 1.7-.2.9-1.4 1.9-2.8 3.6-2.4.6-.7 1.6-.8 2.5-1 .3 0 .5-.1.7-.1l-.1-.2c-.1-.2-.3-.4-.4-.7l-.1-.2v-.2c0-1.4 1.1-2.5 2.2-3.5zM723 47.2h-.3l-.2-.2c-.5-.6-.3-1.4-.1-2-.2.1-.5.2-.8.3.2 1.4.6 2.7 1.5 3.4.1 0 .2-.1.4-.1.5-.2 1.4-.5 2 .2l.2.2v.3c-.1.7-.4 1.5-.6 2.3-.5 1.3-.8 2.3-.4 3h.2c.5-.1 1.2-.3 1.8.2l.2.2c.9-.1 1.7-.2 2.6-.2.4-.8.9-1.5 1.9-1.8l.3-.1.3.2.3.3.3-.5c.2-.4.4-.8.7-1.2-.7-.2-1.3-.4-1.8-.6l-.3-.2-.1-.3c-.1-.6.3-1.1.7-1.3h-1.3c-.6 0-1.2.1-1.7 0l-.3-.1-.2-.3c-.4-.8.1-1.5.5-2l.1-.1c-.6-.4-1.7-.2-3.2.2-1 0-1.9.2-2.7.2zM680.7 16.3c.7 4.2 1.4 8.5 2.1 12.8.7 4.2 1.5 8.4 2.4 12.6.2 1.1.4 2.1.6 3.1.1.7.2 1.3.3 1.9 2.2-3.7 4.4-7.4 6.5-11.2 4.3-7.7 8.3-15.5 12.2-23.2 1.2-2.2 2.3-4.5 3.4-6.7 1-1.9 1.9-3.7 3-5.6l-2.5 5.4c-1.4 2.9-2.8 5.8-4.3 8.8-3.7 7.5-7.5 15.1-11.6 22.5-1.9 3.4-3.7 6.7-5.7 10 .5-.1 1-.2 1.5-.4l3.6-.9c3.9-1 7.6-2.3 11.3-3.7 4.6-1.8 9.2-3.6 13.9-5.3 2.1-.7 4.2-1.4 6.3-2 .7-.2 1.4-.4 2.1-.5l.6-.6c-.4-.7-1.6-.9-3.3-1.1-.9-.1-1.9-.2-2.7-.5l-.3-.1-.1-.3c-.3-.8.2-1.6.6-2.1l.1-.2-.4-.1-.9-.3-.2-.1-.1-.2c-.6-1.4.2-2.7.9-3.9l.6-1.1c-.3-.1-.9.1-1.5.3-.5.2-1.1.3-1.6.3h-.3l-.2-.3c-1.1-1.4-.2-3.1.6-4.6.3-.6.6-1.1.8-1.6-.3-.3-.9-.5-1.5-.6-.5-.1-.9-.2-1.3-.4l-.2-.1-.1-.2c-.7-1.4-.1-2.8.4-4.1l.5-1.2c-.2 0-.4 0-.6.1-.3 0-.6.1-1 .1h-.3l-.2-.3c-.8-1.2-.2-2.5.4-3.7.1-.3.3-.6.4-.8h-.2l-.9.1h-.2l-.2-.1c-1.4-1-1.6-2.7-1.9-4.3-.1-.6-.2-1.2-.3-1.7-1.1-.2-2.2.9-3.4 2-.7.7-1.5 1.4-2.3 1.9l-.2.1-.3-.2c-.7-.2-1-.8-1.1-1.3v-.1c-.3.2-.6.8-.9 1.5-.2.6-.5 1.2-.8 1.6l-.2.3h-.4c-1.2-.1-1.4-1.3-1.6-2.2l-.1-.5c-.4.3-.7 1-1 1.9-.3.7-.5 1.3-.9 1.9l-.2.3h-.3c-1.2.1-1.9-.9-2.4-1.8l-.4-.6c-.3.3-.5 1-.6 1.9-.1.6-.3 1.3-.5 1.8l-.2.3h-.4c-1 .1-1.4-.8-1.7-1.3l-.3.7c-.1.4-.3.8-.5 1.1l-.2.3h-.3c-1 .1-1.5-.8-1.8-1.4 0-.1-.1-.2-.1-.2-.2.3-.3.8-.5 1.4-.1.5-.3 1.1-.5 1.5l-.2.3-.3.1c-.7.1-1.2-.4-1.5-.8-.1.2-.2.6-.3.9-.1.4-.2.8-.4 1.2l-.2.3h-.3c-1.6.2-2.5-1.3-3.2-2.6l-.7-1.2c-.1.1-.1.2-.2.2.2.7.3 1.4.4 2.1 0 1.7.3 3.2.5 4.7zM664.2 18.1c2.1 7.4 3.9 14.8 6.7 21.7 1.5 3.6 3.2 7 5.2 10.3l2.7 4.2.8 1.1c.1.1.2.2.2.4l.3-.1.5-.1.2.3c.3-.6.6-1.2 1-1.8.8-1.4 1.6-2.8 2.5-4.1l1.8-3c-.5-1.3-.8-2.7-1.1-4-.6-2.7-1.1-5.4-1.6-8-1-5.8-1.9-11.6-2.7-17.4-.2-1.5-.5-3-.7-4.6-.2-1-.3-2.1-.4-3.1-.2.3-.3.6-.5 1.2-.2.5-.4 1.1-.7 1.5l-.2.3h-.3c-.4 0-.7-.1-.9-.4v.4c0 .4 0 .9-.1 1.3l-.1.2-.2.1c-.4.3-.8.2-1.1.1-.3.7-.1 1.7.4 3 .3.8.5 1.6.6 2.4v.3l-.1.2c-.2.3-.6.5-.9.5.3.9 1 2 1.6 3.1 1.3 2.1 2.6 4.3 2 6-.3.8-.9 1.3-1.8 1.7-1 .4-1.8.3-2.6-.1-2.1-1.3-2.6-5.7-3-9.9-.1-1.3-.3-2.5-.4-3.5l-.5.4-.3.1-.3-.1c-1.5-.5-1.7-2.2-1.9-3.6l-.2-1.1-.1.1c-.2.2-.4.4-.6.5l-.2.1h-.2c-2-.2-3.1-1.9-4.2-3.5-.4-.6-.8-1.2-1.2-1.7v.1c.4.9.7 1.9 1.1 2.9.4 1.9 1 3.7 1.5 5.6zM677.5 84.9v-.1.1zM675.9 56.7h-2.6c-1.6-.1-3.3-.3-4.9-.5-3.7-.6-7.4-1.4-11.1-2.5-1.8-.5-3.6-1.1-5.4-1.8-1.8-.7-3.7-1.4-5.5-2.2l-.3-.1-.6-.3-.6-.3c-.3-.1-.5-.2-.8-.4 0 .2.1.3.2.5.1.1.2.3.2.4.1.1.2.2.3.4.1.1.2.3.4.5.4.5.9 1.1 1.1 1.6l.1.2v.2c-.2.7-.8 1.1-1.3 1.4l-.2.1c.2.3.7.6 1.5.9.5.2 1 .5 1.4.8l.2.2v.3c.1.9-.5 1.4-1.1 1.8 0 0-.1 0-.1.1l-.3.2c.3.3.8.5 1.6.7.5.2 1.1.3 1.6.6l.3.1.1.3c.2.9-.4 1.6-.9 2.1l-.2.2c.3.2.7.2 1.3.3.5.1 1 .1 1.5.3l.3.1.1.3c.4 1-.2 1.9-.7 2.7l-.3.5c.4.3 1.2.3 2.2.2.7 0 1.3-.1 1.9 0h.3l.2.2c.2.4.2.8.1 1.1 0 .2-.1.3-.2.5.3 0 .7-.1 1-.3.4-.1.9-.3 1.4-.3h.4l.2.3c.2.2.3.4.3.6.1.3.1.6.1.9 0 .3-.1.6-.3.9-.1.3-.3.6-.5.9l-.2.3-.3.6c-.1.2-.2.3-.2.5.3.3.8.3 1.5.4h.4c.6 0 1.2.1 1.7.2l.2.1.1.2c.3.3.3.7.3 1.1 0 .1 0 .3-.1.4.3-.1.7-.3 1-.6.2-.1.4-.2.5-.3l.7-.4.2-.1.2.1.2.1c.5.2.8.7 1 1.1.4-.3.7-1.1 1.1-2.2.2-.7.4-1.4.8-2l.2-.3h.4c.7-.1 1 .4 1.2.9.8-1.2 1.3-3.1 1.9-5.1l.5-1.8.9-2.7c.5-1.2 1.1-2.4 2-3.3l.3-.3.3-.3.3-.3c.2-.2.5-.4.8-.5.4-.3.9-.5 1.3-.7-.3 0-.5 0-.8.1-.3.1-.5.1-.8.1zM680.4 66.3l-.2.6c-.4 1.2-.9 2.2-1.4 3.1-1 1.7-2.6 3.2-4.9 4.5l.3.1.1.3c.2.4.1.8 0 1.2-.1.3-.3.7-.5 1l-.5.7-.1.1h.7l.2.2c.1.2.2.4.2.6.1.3.1.6.1 1 0 .2 0 .3-.1.5-.1.5-.3.9-.5 1.3 0 0 0 .1-.1.1-.1.3-.2.5-.3.7h.5c.2 0 .5-.1.9-.2.1 0 .1 0 .2-.1.5-.2 1.1-.4 1.6-.4h.3l.2.2.2.3c.2.3.3.6.3.9.4-.2.7-.2 1.1-.3.3-.1.7-.1.9-.3-.2-.3-.4-.6-.7-.9-.2-.2-.4-.5-.6-.8-.3-.4-.5-.8-.6-1.2l-.1-.3c0-.3 0-.7.1-1 0-.1 0-.2.1-.3l.1-.3.3-.1h.2l.8-.1c.3 0 .6 0 .8-.1 0-.5-.1-1.1-.3-1.6-.3-1.6-.7-3.4.7-4.3l.3-.2.3.1c.5.2 1 .4 1.4.7l.7.4.3.2.5.3c.5.3 1 .6 1.5.7l.4-1c.1-.3.3-.6.5-.9.1-.2.2-.3.3-.4.1-.1.1-.2.2-.2-.6-1.3-1.2-2.5-1.7-3.8l-2.1-4.6-1.4-3-.2-.5v1.6c0 .2 0 .5-.1.7l-.1.8c-.2 1.2-.5 2.4-.9 3.6.2 0 .2.2.1.4zM687 71.7l-.1.3c-.1.4-.3.8-.4 1.1l-.2.5c.3.1.6.1.9 0v-1c0-.2.1-.5.2-.7l.1-.3v-.1l-.3-.6-.1.4c0 .2-.1.3-.1.4zM712.4 79.8c0-.2 0-.5.1-.7 0-.2 0-.5.1-.7l.1-.9v-.3c.4-3.3.9-6.6 1.5-10l.1-.4c.1-.8.3-1.5.5-2.3l-.6-.6c-.4-.6-.9-1.3-1.3-2l-.9-1.8c-.5-.9-.8-1.9-1.2-2.8-.1-.2-.2-.4-.2-.6-.6-1.7-1.1-3.4-1.5-5.2 0-.1 0-.2-.1-.3-.1-.2-.1-.5-.1-.7-.1-.2-.1-.5-.1-.7l-.1-.7c-.1-.5-.2-.9-.2-1.4-.2.3-.4.7-.5 1.1l-.3.9v.1l-.3.7c-.2.5-.4 1.1-.7 1.5l-.2.3-.3.1c-1.2.2-1.9-.8-2.5-1.5-.2-.2-.3-.4-.4-.5-.7.5-.8 1.8-.9 3.6 0 1 0 2.1-.3 2.9l-.1.3-.3.1c-1 .4-1.7-.4-2.2-1l-.1-.1c-.1.3 0 .8 0 1.3v.1c0 .2 0 .4.1.7v1.3l-.3.2c-1.3.8-2.6-.2-3.6-1l-.5-.3-.5-.3c-.1.1-.2.2-.2.3-.4.6-.4 1.5-.4 2.6v.8999999999999999c0 .9.1 1.7-.1 2.5v.2l-.1.1c-.3.4-.7.5-1.1.5.5 1.3 1.7 2.6 2.9 4 1.3 1.5 2.7 3 2.9 4.6.1.7-.1 1.3-.6 2-.1.1-.1.2-.2.2-1.9 2-4.4 0-6.6-1.7-.7-.5-1.4-1-2-1.5-.1-.1-.2-.2-.4-.2v1.7l-.3.2c-.8.5-1.6.5-2.4.3-.2 0-.3-.1-.5-.2l-.6-.3c-.2-.1-.5-.2-.7-.4-.3-.2-.6-.3-.8-.5-.6-.4-1.2-.7-1.8-.9l-.1.2c.7.6 1.3 1.3 1.9 2l1.5 1.6.4.4.4.5c.2.2.3.4.5.5.2.2.3.4.5.5l.2.2.8.8 2.5 2.5.5.5c.8.7 1.6 1.5 2.3 2.2l.9.8c.3.3.6.6.9.8l2.8 2.4c.2.1.4.3.5.4l.9.7c.8.6 1.5 1.2 2.3 1.7.2.1.4.3.5.4l.6.4c.3.2.6.4.8.6 1 .7 2 1.3 3 1.9l2.4 1.5c.9.5 1.9 1 2.8 1.6l1.2.7.5.3.7.1-.3-.8c-.2-.9-.4-1.7-.6-2.5-.5-2.5-.7-4.9-.8-7.5-.1-1.6 0-3.2 0-4.9.2-1 .2-2.1.3-3.3zM772.4 123.4c-1-.8-2.1-1.7-2.7-2.6l-.2-.3.1-.3c.2-.8 1-.9 1.6-1-.3-.3-.8-.5-1.5-.8-.6-.3-1.2-.5-1.7-.9l-.3-.2v-.3c0-1 .9-1.4 1.5-1.7l.3-.1c-.4-.8-1.7-1.2-3.6-1.6-1-.2-2.1-.5-2.9-.9l-.3-.1-.1-.3c-.2-1 .5-1.6 1.1-2.1-1.7-.4-4.6-.2-7.5 0-4.5.3-8.9.6-10.6-1.2-.6-.6-.8-1.3-.7-2.2.2-1.6.8-2.7 1.8-3.4 2.3-1.5 6.1-.1 10.1 1.3 2.2.8 4.5 1.6 6.3 1.8-.1-.2-.2-.4-.2-.6l-.1-.3.2-.3c1-1.1 2.5-.6 3.7-.2l1 .3c0-.1 0-.3-.1-.4-.1-.3-.1-.6-.1-.9v-.2l.1-.2c1-1.5 2.7-2.1 4.4-2.6.2-.1.5-.2.7-.2-1.1-.2-2.1-.4-3.2-.5-2.5-.4-5.1-.8-7.6-1l-16.9-1.7c-4.5-.5-9-1-13.6-2.1-1.4-.3-2.8-.7-4.1-1.2-.4-.1-.8-.3-1.2-.5-1.6 1-3.2 2-4.8 2.9l-3.7 2.1c-.8.5-1.7.9-2.5 1.2v.3l.2.1 1.1.8c1.1.8 2.2 1.7 3.3 2.4 3.7 2.5 7.6 4.6 11.7 6.6 9.4 4.5 19.4 7.8 29.1 11.6 3.6 1.4 7.1 2.8 10.6 4.4.9.4 1.8.8 2.8 1.3.5.1 1.1.1 1.5.2.2-1.6-1.1-2.8-3-4.4zM707.2 99.2c1.5-.6 3-.6 4.5-.5-.7-.3-1.4-.6-2-.9-1.1-.5-2.1-1.1-3.1-1.7-1.5-.9-2.9-1.8-4.2-2.8-.2-.1-.3-.2-.5-.4-.4-.3-.7-.6-1.1-.8l-1.7-1.3c-1.2-1-2.4-1.9-3.6-3-.3-.3-.6-.6-.9-.8l-.9-.8-1.4-1.2-1.8-1.8-.5-.5c-.6-.6-1.2-1.2-1.7-1.8l-.5-.5c-.2-.2-.3-.4-.5-.5l-1.1-1.2c-.2-.2-.4-.5-.7-.7l-.5-.6-.4-.5c-.5-.5-.9-1-1.4-1.6-.7-.7-1.3-1.5-1.9-2.4-.2.5-.1 1.4.2 2.5.2.7.3 1.5.3 2.2v.2l-.1.2c-.4.4-.9.6-1.4.7-.2 0-.4 0-.6.1h-.4v.1c0 .2.1.5.3.8 0 0 0 .1.1.1.2.2.4.5.6.8.4.5.8 1 1 1.6l.1.3-.1.3c-.4.9-1.3 1.1-2.1 1.3l-.5.1c0 .1.1.3.2.4.2.4.6.8 1.2 1.3l.3.3c.3.3.5.5.7.8.1.1.2.2.3.4l.2.2-.1.3v.1c-.1.2-.2.5-.4.6-.3.3-.7.5-1.1.7l-.5.2-.5.2c.1.4.6.7 1.3 1.2.5.3 1 .7 1.3 1.1l.2.2v.3c-.1 1.2-1.2 1.8-2.1 2.3-.3.1-.5.3-.7.4.2.6 1.1 1 2.2 1.5.7.3 1.4.6 2 1l.2.2v.3c.1.8-.5 1.2-.9 1.6.3.2.7.3 1.4.3.5.1 1.1.2 1.5.4l.3.1.1.3c.4 1.6-1.2 2.6-2.4 3.4-.4.3-.9.6-1.2.9.2.6.8 1 1.8 1.6.6.3 1.2.7 1.6 1.1l.2.2v.2c.1.7-.3 1.2-.6 1.6.3.1.8.1 1.5 0 .5-.1 1.1-.1 1.6-.1h.2l.2.1c.5.5.6 1.2.6 1.7v.1c.7 0 1.4-.7 2.4-1.7.4-.4.9-.9 1.3-1.2l.5-.4.3-.2.3.1c.7.3.8 1 .7 1.6 1.5-.7 3.1-2.5 4.8-4.4l1.1-1.2.3-.3c.1-.1.2-.2.3-.4.6-.6 1.1-1.2 1.7-1.7l.3-.3.3-.3c.9-.8 1.9-1.4 2.9-1.8.5-.2.6-.2.7-.3zM759.3 121.8l-10.5-3.8.1.1c.3.4.4.7.6 1.1l1.3 2.5c1.1 2.3 2.3 4.6 3.7 6.9 1.4 2.2 2.8 4.2 4.4 6l1.5 1.5c.3.1.6.2.9.2 0-.2-.1-.6-.1-.9-.1-.4-.2-.8-.2-1.2v-.2l.2-.2c.9-1.1 2.4-1 3.7-1h1.4v-1.7l.1-.1c.7-.8 1.8-.9 2.8-1h.5l-.2-.3-.5-.7-.1-.3.2-.3c.9-1.5 2.5-1.4 4.1-1.1l-3.3-1.4c-3.6-1.5-7.1-2.8-10.6-4.1zM757.8 134c-2.7-3-5.1-6.9-7-10.8-.5-1-.9-1.9-1.3-2.8-.4-.8-.7-1.6-.8-2.5-6.1-2.2-12.2-4.5-18-7.2-1.9-.9-3.8-1.9-5.7-2.9l.2 1.2c.2 1.1.4 2.2.7 3.3.9 4.1 2.3 8.2 4 12.2 1.5 3.5 3.3 7.1 5.2 10.6.9 1.7 1.9 3.5 3 5.3l.3.6c.4.3.7.6 1 .9.3-.3.5-.9.6-1.8.1-.6.2-1.2.4-1.7l.1-.3.3-.1c1.1-.4 1.9.4 2.6 1l.1.1v-.7l.1-.4.4-.1c1.2-.4 1.9.7 2.4 1.5.1.1.1.2.2.2v-.1c.1-.3.2-.6.3-.8l.1-.2.2-.1c1.5-.5 2.9.3 4.1 1.1.4.3.8.5 1.2.7 0-.2.1-.5.1-.8 0-.4 0-.7.1-1.1l.1-.2.2-.1c.8-.6 1.7-.5 2.5-.4h.6v-.4c0-.2 0-.4.1-.6l.1-.2.2-.1c1.1-.8 2.4-.5 3.5-.2 0 0-.1 0-.1-.1-.8-.6-1.4-1.3-2.1-2zM735 135.7c-2.3-4.1-4.4-8.1-6.2-12.2-.8-1.9-1.5-3.8-2.1-5.6-.6-1.8-1.1-3.5-1.4-5.3-.2-.7-.3-1.5-.4-2.2l-.2-1.7v-1l-2.5-1.4c-1.2-.7-2.3-1.5-3.4-2.4-1.1-.9-2.2-1.8-3.2-2.8l-.6-.6c0 .4-.1.7-.2 1.1.1.3.1.6.1.9l.2 3.3c.1 2.5-.1 5.1-.2 7.7-.1 2.1-.2 4.2-.3 6.2 0 .7 0 1.3-.1 2v3.8c0 3.6 0 7.1.4 10.6.2 2.4.7 4.8 1.2 7.3l.7 2.7v.1c.2.3.5.5.8.8 1.3-.5 1.8-2.5 2.2-4.5.3-1.2.5-2.4 1-3.4l.1-.2.2-.1c.6-.3 1.3 0 1.7.2.1 0 .1 0 .2.1.5-.6.5-1.6.4-2.7l-.4-2.1c-.1-.3-.1-.6-.2-.8-.1-.3-.2-.6-.2-1-.4-1.6-.6-3.1-.2-4.1l.3-.4.3-.3c.2-.2.5-.3.8-.4 1.1-.3 2-.2 2.7.2 1.5.9 2.1 3.1 2.6 5.3.3 1.2.6 2.5 1.1 3.5.1-.1.2-.2.3-.2l.2-.1.2.1c1.4.3 2 1.6 2.5 2.8.1.3.3.7.4.9l.1-.1.5-.4.2-.1h.2c1.3 0 2.3.8 3.3 1.6l-.2-.3c-1.1-1.6-2-3.2-2.9-4.8zM713.7 122.9v-.7c0-1 0-2 .1-3.1l.4-11.4c0-1.2.1-2.5.1-3.8v-.9c-1.6 3.8-5.7 7.8-8.7 9.9-2.3 1.5-5.2 2-7.6 2.1l.2.2.2.2v.3c-.1.8-.7 1.4-1.3 1.7-.4.2-.7.4-1.1.5l-.4.2.6.3.2.2v.3c.2 1.5-.9 2.4-1.9 3.3l-.9.8c.3.3 1 .4 2 .6.6.1 1.3.2 1.8.4l.3.1.1.3c.4 1.1-.4 2-1 2.7-.1.1-.2.2-.2.3-.1.1-.2.2-.2.3h.1c.2.1.5.2.9.2.4.1.8.1 1.2.3l.3.1.1.3c.4.8-.1 1.6-.5 2.2l-.2.3.2.1c.3.2.8.4 1 .8.4.8.4 1.8.4 2.6v.6c.2-.1.4-.2.5-.3.3-.2.6-.3.9-.4l.3-.1.3.2c1 .6.9 1.8.8 2.8v.6c.2-.1.4-.2.6-.2.3-.1.6-.3.9-.3l.3-.1.2.1c1.4.8 1.6 2.5 1.8 4 .1.5.1 1 .2 1.4.3-.1.6-.4 1-.7.3-.3.7-.6 1.1-.8l.2-.1.3.1c1.1.3 1.4 1.4 1.7 2.3l.2.6.4-.3c.2-.2.5-.4.8-.5l.2-.1h.2c1.6.2 2.7 1.4 3.8 2.5l.2.2c-.1-.2-.1-.4-.2-.7-.5-1.5-.9-2.9-1.2-4.4-1.1-5.3-1.4-10.6-1.4-15.9v-.8c-.3-.5-.3-1-.3-1.4zM716.2 57.6l.2-1 .1-.6c.6-2.7 1.2-5.3 1.7-7.9.1-.4.2-.9.2-1.3l.2-.9.2-.9c0-.1 0-.2.1-.4.1-.3.1-.5.1-.8l.1-.7c0-.2.1-.5.2-.7 0-.2.1-.4.1-.5-.3.1-.6.3-.9.7-.2.2-.4.5-.6.8-.1.2-.3.5-.5.8-.4.8-.9 1.6-1.5 2.1l-.2.2h-.3c-.6 0-1.1-.5-1.4-.9l-.1-.1c-.6.2-1 1.1-1.5 1.9-.3.6-.6 1.2-1 1.6l-.1.1-.2.2h-.3c-1.1 0-1.6-1-2-1.7-.1-.2-.2-.3-.2-.5-.2.1-.4.3-.5.5.1.4.2.8.3 1.3.1.3.2.6.3 1l.2.7c.1.2.1.4.2.7l.2.6c.5 1.6 1 3.2 1.6 4.8.1.2.2.4.2.6.4.9.8 1.9 1.3 2.8.5 1 1 2 1.6 2.9l.6 1.1c.7-2.2 1.1-4.3 1.6-6.5zM737.8 52.2l-.2.7-.3 1.1c0 .1 0 .1-.1.2v.30000000000000004l-.2.6-.3.8-.5 1.6-.5 1.5v.1c-1.5 4.7-3 9.4-4.5 14.2-1.4 4.7-2.8 9.4-4.2 14.2-.3 1.2-.7 2.4-1 3.5l-.7 2.1c4.2-2.6 8.4-5.3 12.5-8.1 8.4-5.7 16.5-11.5 24.6-17.4 2.4-1.7 4.7-3.4 7-5.1 2-1.4 3.9-2.8 6-4.2-1.7 1.4-3.6 2.8-5.4 4.2-3 2.3-6 4.5-9 6.7-7.7 5.8-15.6 11.5-23.7 17-3.7 2.5-7.3 4.9-11.1 7.3l1.7.4c1.4.4 2.8.7 4.2 1 4.5 1 9.1 1.6 13.6 2.1 5.7.6 11.3 1.1 17 1.9 2.5.4 5 .8 7.5 1.3.9.2 1.7.3 2.6.6l.9-.3c0-1.1-1.2-1.9-2.8-3-.9-.6-1.8-1.2-2.4-1.9l-.2-.2v-.3c.1-1 1-1.4 1.7-1.7.1-.1.2-.1.4-.2l-.4-.4c-.2-.2-.5-.4-.7-.7l-.1-.2v-.2c.1-1.6 1.6-2.6 2.9-3.4.5-.3.9-.6 1.3-.9-.3-.3-1-.4-1.9-.6-.6-.1-1.3-.2-1.8-.5l-.3-.1-.1-.3c-.4-2 1.4-3.2 3-4.3.6-.4 1.3-.9 1.7-1.3-.1-.5-.7-1-1.2-1.5-.4-.4-.8-.7-1.1-1.1l-.1-.2v-.2c0-1.7 1.4-2.9 2.6-3.9.4-.4.9-.7 1.2-1.1l-.7-.3c-.3-.1-.7-.2-1-.4l-.3-.2v-.3c-.2-1.6 1.1-2.6 2.3-3.4.4-.3.7-.5 1-.8-.1-.1-.3-.1-.4-.1-.3-.1-.6-.2-.9-.4l-.2-.1-.1-.2c-.8-1.7-.3-3.6.3-5.4l.6-2.1c-1.1-.8-2.9-.3-4.7.2-1.1.3-2.3.7-3.3.7h-.3l-.2-.2c-.6-.5-.5-1.3-.5-1.8v-.2c-.5 0-1.1.5-1.9 1.2-.5.5-1.1.9-1.7 1.2l-.3.2-.3-.2c-1.1-.7-.8-2-.5-3 .1-.2.1-.4.2-.7-.6 0-1.3.6-2.2 1.4-.6.5-1.2 1.1-1.9 1.4l-.3.2-.3-.1c-1.2-.5-1.4-1.9-1.5-3l-.1-.9c-.5.1-1.1.7-1.8 1.7-.5.6-.9 1.2-1.4 1.6l-.3.2-.4-.1c-1-.4-1-1.4-1-2.2v-.3c-.2.1-.5.4-.8.7-.3.3-.6.6-1 .9l-.3.2-.3-.1c-1-.4-1.1-1.5-1.1-2.3v-.5c-.4.1-.8.6-1.4 1.2-.4.5-.8.9-1.3 1.3l-.3.2-.8-.5c-.8-.2-.9-1-1-1.6v-.1c-.3.1-.6.5-1 .9-.3.4-.7.7-1 1l-.3.2-.3-.1c-1-.4-1.5-1.3-1.7-2.3l-.1-.7v-.1l-.1-1.2v-.3c0-.3 0-.6-.1-.9 0-.2 0-.3-.1-.5l-.3.1v.1c-.1.3-.2.5-.2.7zM732.8 54.6l-.1.2h-.6000000000000001c-.2 0-.4-.1-.6-.3l-.2-.2-.2.2c-.1.1-.2.2-.3.4-.4.6-.6 1.6-.8 2.8-.1.9-.3 1.9-.6 2.7l-.1.2-.2.1c-.5.2-.9.1-1.2 0-.2 1.2-.1 2.7.1 4.2l.1 2.1v1.5c0 .4 0 .7-.1 1 0 .3-.1.6-.2.8-.2.6-.4 1.1-.7 1.4-.1.1-.1.1-.1.2l-.4.3c-.3.2-.6.3-1 .4h-.1c-.3.1-.7.1-1.1 0-.6-.1-1.1-.2-1.5-.5-.4-.2-.8-.6-1-1-.1-.2-.2-.4-.2-.6 0-.1-.1-.2-.2-.4-.7-2.6.9-6.7 2.4-10.7.5-1.4 1.1-2.8 1.5-4h-.1c-.2.1-.5.1-.8.2h-.3l-.2-.2-.3-.4c-.7-1.2-.2-2.8.3-4.1.2-.5.3-.9.4-1.3l-.3.1c-.3.1-.6.2-.9.2h-.2l-.2-.1c-1.4-.9-1.9-2.5-2.2-4.2l-.1-.7-.1-.7v-.2l-.1-.6-.1-.7c0-.2-.1-.4-.1-.7l-.1-.5s-.1 0-.1.1v.5c0 .2 0 .5-.1.7 0 .2 0 .5-.1.7 0 .4-.1.7-.2 1.1l-.1.7v.2c0 .3-.1.6-.2.9-.3 1.8-.6 3.7-1 5.5l-.8 3.9-.1.6-2.1 10.6c0 .1 0 .3-.1.4-.6 3.4-1.1 6.8-1.4 10.2v2c-.2 3.8-.2 7.6.1 11.4.2 1.9.3 3.8.6 5.7.1.5.2 1 .2 1.5 0 .2 0 .4.1.6.1 0 .2 0 .4.1l.5.1v.4c.6-.5 1.3-.9 2-1.4 1.5-1 3.1-2 4.7-3 1.1-.7 2.3-1.4 3.4-2.2.1-1.6.6-3.2.9-4.7.7-3.1 1.6-6.1 2.6-9 1.7-5.6 3.6-11.2 5.4-16.7l.4-1.3.4-1.2.3-.8c.1-.4.2-.7.4-1.1 0-.1.1-.2.1-.2l.3-.8c.1-.4.3-.8.4-1.3.1-.3.2-.6.3-.8v-.1l.2-.6c0-.1 0-.1.1-.2l.5-1.4c.1-.2.2-.4.2-.7.1-.2.1-.4.2-.7v-.1s-.1 0-.1.1c-.2.1-.4.3-.6.5l-.6.5c-.5.4-.9.9-1.4 1.2l-.3.2-.3-.1c-.5-.2-.6-.6-.7-1l-.4.7c-.2.4-.4.8-.7 1.1-.4.2-.4.3-.5.3z"/></svg>